<svg width="13" height="13" viewBox="0 0 13 13" fill="none" xmlns="http://www.w3.org/2000/svg">
    <path fill-rule="evenodd" clip-rule="evenodd"
        d="M12.4267 6.58104C12.4267 9.80089 9.81649 12.4111 6.59664 12.4111C3.3768 12.4111 0.766602 9.80089 0.766602 6.58104C0.766602 3.36118 3.3768 0.750977 6.59664 0.750977C9.81649 0.750977 12.4267 3.36118 12.4267 6.58104Z"
        fill="#141414" fill-opacity="0.08" />
    <path
        d="M0.766602 6.00003C0.766602 2.77798 3.37795 0.166626 6.59998 0.166626C9.82202 0.166626 12.4334 2.77798 12.4334 6.00003C12.4334 9.22207 9.82202 11.8334 6.59998 11.8334C3.37795 11.8334 0.766602 9.22207 0.766602 6.00003Z"
        fill="#F0A50F" />
    <path fill-rule="evenodd" clip-rule="evenodd"
        d="M6.59998 1.13886C3.9149 1.13886 1.73883 3.31493 1.73883 6.00003C1.73883 8.68512 3.9149 10.8612 6.59998 10.8612C9.28507 10.8612 11.4611 8.68512 11.4611 6.00003C11.4611 3.31493 9.28507 1.13886 6.59998 1.13886ZM6.59998 0.166626C3.37795 0.166626 0.766602 2.77798 0.766602 6.00003C0.766602 9.22207 3.37795 11.8334 6.59998 11.8334C9.82202 11.8334 12.4334 9.22207 12.4334 6.00003C12.4334 2.77798 9.82202 0.166626 6.59998 0.166626Z"
        fill="#D08D06" />
    <path fill-rule="evenodd" clip-rule="evenodd"
        d="M7.13262 7.66313C7.29299 7.66313 7.42299 7.79313 7.42299 7.9535V8.70846C7.42299 8.86883 7.29299 8.99883 7.13262 8.99883H6.37765C6.21728 8.99883 6.08728 8.86883 6.08728 8.70846V7.9535C6.08728 7.79313 6.21728 7.66313 6.37765 7.66313H7.13262ZM7.13262 3.39844C7.29299 3.39844 7.42299 3.52844 7.42299 3.68881V6.74362C7.42299 6.90399 7.29299 7.03399 7.13262 7.03399H6.37765C6.21728 7.03399 6.08728 6.90399 6.08728 6.74362V3.68881C6.08728 3.52844 6.21728 3.39844 6.37765 3.39844H7.13262Z"
        fill="#141414" fill-opacity="0.2" />
    <path fill-rule="evenodd" clip-rule="evenodd"
        d="M6.84221 7.37272C7.00258 7.37272 7.13259 7.50273 7.13259 7.66309V8.41806C7.13259 8.57843 7.00258 8.70843 6.84221 8.70843H6.08725C5.92688 8.70843 5.79688 8.57843 5.79688 8.41806V7.66309C5.79688 7.50273 5.92688 7.37272 6.08725 7.37272H6.84221ZM6.84221 3.10803C7.00258 3.10803 7.13259 3.23804 7.13259 3.3984V6.45322C7.13259 6.61358 7.00258 6.74359 6.84221 6.74359H6.08725C5.92688 6.74359 5.79688 6.61358 5.79688 6.45322V3.3984C5.79688 3.23804 5.92688 3.10803 6.08725 3.10803H6.84221Z"
        fill="white" />
</svg>
