<svg width="14" height="14" viewBox="0 0 14 14" fill="none" xmlns="http://www.w3.org/2000/svg">
<g clip-path="url(#clip0_5476_2114)">
<path fill-rule="evenodd" clip-rule="evenodd" d="M12.8266 7.5811C12.8266 10.801 10.2164 13.4112 6.99654 13.4112C3.7767 13.4112 1.1665 10.801 1.1665 7.5811C1.1665 4.36124 3.7767 1.75104 6.99654 1.75104C10.2164 1.75104 12.8266 4.36124 12.8266 7.5811Z" fill="#141414" fill-opacity="0.08"/>
<path d="M1.1665 7.00009C1.1665 3.77804 3.77785 1.16669 6.99989 1.16669C10.2219 1.16669 12.8333 3.77804 12.8333 7.00009C12.8333 10.2221 10.2219 12.8335 6.99989 12.8335C3.77785 12.8335 1.1665 10.2221 1.1665 7.00009Z" fill="#FF706D"/>
<path fill-rule="evenodd" clip-rule="evenodd" d="M6.99989 2.13892C4.3148 2.13892 2.13873 4.315 2.13873 7.00009C2.13873 9.68518 4.3148 11.8613 6.99989 11.8613C9.68497 11.8613 11.861 9.68518 11.861 7.00009C11.861 4.315 9.68497 2.13892 6.99989 2.13892ZM6.99989 1.16669C3.77785 1.16669 1.1665 3.77805 1.1665 7.00009C1.1665 10.2221 3.77785 12.8335 6.99989 12.8335C10.2219 12.8335 12.8333 10.2221 12.8333 7.00009C12.8333 3.77805 10.2219 1.16669 6.99989 1.16669Z" fill="#EE3F38"/>
<path fill-rule="evenodd" clip-rule="evenodd" d="M7.53264 8.66319C7.69301 8.66319 7.82302 8.79319 7.82302 8.95356V9.70853C7.82302 9.86889 7.69301 9.9989 7.53264 9.9989H6.77768C6.61731 9.9989 6.4873 9.86889 6.4873 9.70853V8.95356C6.4873 8.79319 6.61731 8.66319 6.77768 8.66319H7.53264ZM7.53264 4.3985C7.69301 4.3985 7.82302 4.5285 7.82302 4.68887V7.74368C7.82302 7.90405 7.69301 8.03405 7.53264 8.03405H6.77768C6.61731 8.03405 6.4873 7.90405 6.4873 7.74368V4.68887C6.4873 4.5285 6.61731 4.3985 6.77768 4.3985H7.53264Z" fill="#141414" fill-opacity="0.2"/>
<path fill-rule="evenodd" clip-rule="evenodd" d="M7.24212 8.37285C7.40248 8.37285 7.53249 8.50285 7.53249 8.66322V9.41818C7.53249 9.57855 7.40248 9.70855 7.24212 9.70855H6.48715C6.32678 9.70855 6.19678 9.57855 6.19678 9.41818V8.66322C6.19678 8.50285 6.32678 8.37285 6.48715 8.37285H7.24212ZM7.24212 4.10815C7.40248 4.10815 7.53249 4.23816 7.53249 4.39853V7.45334C7.53249 7.6137 7.40248 7.74371 7.24212 7.74371H6.48715C6.32678 7.74371 6.19678 7.6137 6.19678 7.45334V4.39853C6.19678 4.23816 6.32678 4.10815 6.48715 4.10815H7.24212Z" fill="white"/>
</g>
<defs>
<clipPath id="clip0_5476_2114">
<rect width="14" height="14" fill="white"/>
</clipPath>
</defs>
</svg>
