<svg width="11" height="14" viewBox="0 0 11 14" fill="none" xmlns="http://www.w3.org/2000/svg">
    <rect width="5.47332" height="5.47332" rx="0.291667"
        transform="matrix(0.86601 0.500028 3.18907e-05 1 0 4.7915)" fill="#909EBC" />
    <path fill-rule="evenodd" clip-rule="evenodd"
        d="M5.51329 1.03736C5.42305 0.985267 5.31188 0.985267 5.22164 1.03736L0.804533 3.58739C0.610078 3.69965 0.610078 3.98032 0.804533 4.09258L5.59536 6.85836C5.68561 6.91046 5.7412 7.00676 5.7412 7.11097L5.74102 12.6464C5.74101 12.8709 5.98408 13.0113 6.17853 12.899L10.5971 10.3477C10.6873 10.2956 10.7429 10.1994 10.7429 10.0952L10.7431 4.06001C10.7431 4.05959 10.7433 4.0592 10.7437 4.05898C10.7445 4.05853 10.7445 4.05738 10.7437 4.05693C10.7433 4.05671 10.7431 4.05632 10.7431 4.0559V4.05585C10.7431 4.05487 10.7421 4.05425 10.7412 4.05474C10.7408 4.05497 10.7403 4.05497 10.7399 4.05474L5.51329 1.03736Z"
        fill="#C6D1E7" />
</svg>
