<svg width="14" height="14" viewBox="0 0 14 14" fill="none" xmlns="http://www.w3.org/2000/svg">
<path d="M13.0812 0.138611H0.555664V13.8614H13.0812V0.138611Z" fill="white" fill-opacity="0.01"/>
<g filter="url(#filter0_d_5304_163167)">
<path d="M4.42871 7.06834C4.42871 5.5633 5.64881 4.3432 7.15385 4.3432C8.65893 4.3432 9.879 5.5633 9.879 7.06834V11.4286H4.42871V7.06834Z" fill="#F0A50F" stroke="#D08D06" stroke-width="1.33095" stroke-linejoin="round"/>
<path d="M7.15527 1.61664V2.43419" stroke="#D08D06" stroke-width="1.33095" stroke-linecap="round" stroke-linejoin="round"/>
<path d="M10.3956 2.79633L9.87012 3.42259L10.3956 2.79633Z" fill="#F53F3F"/>
<path d="M10.3956 2.79633L9.87012 3.42259" stroke="#D08D06" stroke-width="1.33095" stroke-linecap="round" stroke-linejoin="round"/>
<path d="M12.1206 5.7807L11.3154 5.92268L12.1206 5.7807Z" fill="#F53F3F"/>
<path d="M12.1206 5.7807L11.3154 5.92268" stroke="#D08D06" stroke-width="1.33095" stroke-linecap="round" stroke-linejoin="round"/>
<path d="M2.19043 5.7807L2.99554 5.92266L2.19043 5.7807Z" fill="#F53F3F"/>
<path d="M2.19043 5.7807L2.99554 5.92266" stroke="#D08D06" stroke-width="1.33095" stroke-linecap="round" stroke-linejoin="round"/>
<path d="M3.91309 2.79633L4.4386 3.42259L3.91309 2.79633Z" fill="#F53F3F"/>
<path d="M3.91309 2.79633L4.43861 3.42259" stroke="#D08D06" stroke-width="1.33095" stroke-linecap="round" stroke-linejoin="round"/>
<g filter="url(#filter1_d_5304_163167)">
<path fill-rule="evenodd" clip-rule="evenodd" d="M12.6204 11.7682C12.6204 11.9615 12.4637 12.1182 12.2704 12.1182L2.04043 12.1182C1.84713 12.1182 1.69043 11.9615 1.69043 11.7682L1.69043 11.0682C1.69043 10.8749 1.84713 10.7182 2.04043 10.7182L12.2704 10.7182C12.4637 10.7182 12.6204 10.8749 12.6204 11.0682V11.7682Z" fill="#D08D06"/>
</g>
</g>
<defs>
<filter id="filter0_d_5304_163167" x="1.5249" y="0.951172" width="11.9194" height="13.8891" filterUnits="userSpaceOnUse" color-interpolation-filters="sRGB">
<feFlood flood-opacity="0" result="BackgroundImageFix"/>
<feColorMatrix in="SourceAlpha" type="matrix" values="0 0 0 0 0 0 0 0 0 0 0 0 0 0 0 0 0 0 127 0" result="hardAlpha"/>
<feOffset dy="1.16667"/>
<feColorMatrix type="matrix" values="0 0 0 0 0 0 0 0 0 0 0 0 0 0 0 0 0 0 0.08 0"/>
<feBlend mode="normal" in2="BackgroundImageFix" result="effect1_dropShadow_5304_163167"/>
<feBlend mode="normal" in="SourceGraphic" in2="effect1_dropShadow_5304_163167" result="shape"/>
</filter>
<filter id="filter1_d_5304_163167" x="1.69043" y="10.7182" width="10.9299" height="2.56669" filterUnits="userSpaceOnUse" color-interpolation-filters="sRGB">
<feFlood flood-opacity="0" result="BackgroundImageFix"/>
<feColorMatrix in="SourceAlpha" type="matrix" values="0 0 0 0 0 0 0 0 0 0 0 0 0 0 0 0 0 0 127 0" result="hardAlpha"/>
<feOffset dy="1.16667"/>
<feColorMatrix type="matrix" values="0 0 0 0 0.0784314 0 0 0 0 0.0784314 0 0 0 0 0.0784314 0 0 0 0.08 0"/>
<feBlend mode="normal" in2="BackgroundImageFix" result="effect1_dropShadow_5304_163167"/>
<feBlend mode="normal" in="SourceGraphic" in2="effect1_dropShadow_5304_163167" result="shape"/>
</filter>
</defs>
</svg>
